<?xml version="1.0" standalone="no"?>
<!DOCTYPE svg PUBLIC "-//W3C//DTD SVG 20010904//EN"
 "http://www.w3.org/TR/2001/REC-SVG-20010904/DTD/svg10.dtd">
<svg version="1.0" xmlns="http://www.w3.org/2000/svg"
 width="1200.000000pt" height="1200.000000pt" viewBox="0 0 1200.000000 1200.000000"
 preserveAspectRatio="xMidYMid meet">
<metadata>
Created by potrace 1.11, written by Peter Selinger 2001-2013
</metadata>
<g transform="translate(0.000000,1200.000000) scale(0.100000,-0.100000)"
fill="#000000" stroke="none">
<path d="M4229 9063 c-1 -5 -2 -720 -3 -1590 0 -870 -4 -1584 -7 -1587 -4 -4
-19 -8 -35 -10 -16 -3 -45 -7 -64 -11 -19 -3 -48 -8 -65 -11 -16 -2 -41 -6
-55 -9 -14 -3 -41 -7 -60 -10 -19 -3 -60 -10 -90 -15 -30 -5 -71 -11 -90 -14
-19 -3 -116 -19 -215 -36 -99 -17 -196 -33 -215 -36 -36 -5 -136 -22 -180 -30
-14 -2 -41 -7 -60 -10 -318 -51 -372 -63 -405 -85 -73 -50 -68 49 -68 -1353 0
-1178 1 -1263 17 -1298 23 -48 45 -67 98 -82 34 -10 723 -12 3253 -11 2925 1
3213 2 3240 17 40 21 64 49 78 90 9 25 12 494 12 1818 l-1 1785 -23 42 c-23
40 -64 69 -112 78 -11 2 -102 -9 -202 -26 -100 -16 -198 -32 -217 -35 -19 -3
-57 -9 -85 -14 -27 -5 -68 -12 -90 -15 -22 -3 -65 -10 -95 -15 -30 -5 -71 -12
-90 -15 -19 -3 -46 -7 -60 -10 -14 -3 -39 -7 -56 -10 -17 -3 -87 -14 -155 -25
-68 -11 -133 -22 -144 -23 -20 -2 -20 4 -21 1268 -1 699 -2 1276 -3 1283 -1 9
-86 12 -389 12 l-387 0 0 -1347 0 -1348 -60 -12 c-33 -7 -79 -14 -101 -17 -23
-3 -93 -14 -155 -25 -63 -11 -132 -22 -154 -26 -53 -8 -89 -13 -154 -25 -30
-6 -60 -10 -66 -10 -8 0 -11 390 -10 1405 l0 1405 -386 0 c-301 0 -388 -3
-391 -12 -2 -7 -4 -669 -3 -1471 1 -1456 1 -1458 -20 -1462 -18 -4 -88 -16
-170 -29 -79 -13 -223 -36 -250 -41 -69 -12 -92 -15 -135 -21 -25 -3 -62 -9
-82 -14 -21 -4 -39 -5 -39 -1 -1 3 -2 690 -3 1526 l-1 1520 -388 3 c-213 1
-387 -1 -388 -5z m4767 -4295 l-1 -1583 -3020 -1 c-1661 0 -3025 1 -3030 3
-10 3 -15 2146 -5 2156 3 3 22 8 44 11 21 4 41 8 45 10 3 2 31 7 61 10 30 4
132 20 225 36 94 16 184 31 200 34 48 7 733 120 825 136 30 5 69 12 85 14 59
10 91 15 185 31 52 9 109 18 125 21 17 3 44 7 60 10 17 3 44 7 60 10 17 2 41
6 55 9 14 3 39 7 55 10 125 20 585 96 605 100 14 2 54 9 90 15 36 5 74 12 85
14 19 3 72 12 140 22 17 3 57 9 90 15 33 6 74 13 90 16 17 2 84 13 150 24 66
11 134 22 150 25 17 2 41 6 55 9 14 3 39 7 55 9 98 16 354 58 375 62 14 3 41
7 60 10 19 2 46 6 60 9 39 8 65 13 205 35 163 26 178 28 245 40 30 6 69 12 85
15 17 3 46 8 65 11 19 3 44 8 55 9 25 5 390 64 425 70 14 2 68 11 120 20 52 9
106 18 120 20 25 4 61 10 115 19 75 13 404 67 435 72 19 3 53 10 75 14 22 4
49 8 61 9 l21 1 -1 -1582z"/>
<path d="M6370 5060 l0 -310 265 0 265 0 0 310 0 310 -265 0 -265 0 0 -310z"/>
<path d="M7258 5363 c-4 -7 -3 -567 1 -600 1 -10 60 -13 261 -13 l260 0 1 38
c0 20 1 159 1 307 l1 270 -261 3 c-143 1 -262 -1 -264 -5z"/>
<path d="M8140 5060 l0 -310 264 0 264 0 -1 310 0 310 -264 0 -263 0 0 -310z"/>
<path d="M7259 4411 c-6 -31 -2 -604 4 -608 11 -7 507 -6 514 1 4 4 8 548 4
603 -1 9 -63 12 -261 11 -143 0 -261 -3 -261 -7z"/>
<path d="M8140 4110 l0 -310 48 -1 c49 0 340 0 428 1 l51 0 -1 308 -1 307
-262 2 -263 2 0 -309z"/>
</g>
</svg>
